<svg version="1" xmlns="http://www.w3.org/2000/svg" width="4000" height="4000" viewBox="0 0 3000.000000 3000.000000"><path d="M1443 1.1c-255.6 10.7-492.1 80.6-709 209.4-152 90.2-288.7 208.9-402.1 349-121.4 150-214.1 326-269.4 511.5-71.9 240.8-81.9 499.6-28.9 745.5 34.1 158.3 93.4 309 176.9 449.5 95.7 161.3 225 306.9 375 422.6 144.9 111.8 310.6 196.8 485.5 248.9 194 57.9 401.2 75.9 602.5 52.4 232.6-27.1 450-105.9 647-234.4 110.1-71.9 214.9-162.6 304.6-264 102.5-115.9 188-250 250.4-393 100.2-229.4 140.9-481.2 118.4-732.5-21.9-246.2-102.5-478.2-238.4-686.5-90.2-138.2-208.4-265.9-341-368.1-144.9-111.8-310.6-196.8-485.5-248.9-140.2-41.9-287.2-63-433.5-62.3-18.7 0-42.3.5-52.5.9zm852 1115.5c0 523 0 532.2-3.6 568.4-23.6 240.9-157.1 458.7-362 590.8-180.2 116.1-401.7 154.3-610.4 105.2-145.1-34.1-276-107.1-381.4-212.6-130.1-130.2-211.1-301.2-229-483.4-5.4-54.4-4.6-121.6 1.9-175 17.8-144.5 75.5-282.6 166-396.5 38-47.9 86.8-96.4 134.5-133.7 109.1-85.2 238.8-140.6 375.3-160.3 40-5.7 69.9-7.8 113.7-7.8 89 0 167.2 12.6 251 40.5l21.5 7.1 261-130.5c143.6-71.8 261.1-130.5 261.2-130.4.2.2.3 233.3.3 518.2z"/><path d="M1463.5 1108.1c-82.8 6.2-163.5 33-232.3 77.1-95.3 61.1-167.4 152.4-203.9 258.3-47.3 137.6-32.5 289.3 40.5 414.5 69.6 119.3 186.2 205.3 319.7 235.9 106.5 24.3 220.7 13.1 318-31.4 134.7-61.6 234.7-177.2 275.4-318.5 18.5-64.3 23.7-136.3 14.6-204-20.4-153-112.3-289.5-247-367-15.7-9.1-48.6-24.9-65-31.3-48.2-18.8-97.2-29.9-149-33.7-16.1-1.1-54.9-1.1-71 .1z"/></svg>