<svg version="1" xmlns="http://www.w3.org/2000/svg" width="4000" height="4000" viewBox="0 0 3000.000000 3000.000000"><path d="M0 1500v1500h3000V0H0v1500zm2294.7-372.8c-.2 400.4-.6 531.2-1.5 540.3-6.5 65.3-14.2 107.1-29.1 159.2-75.4 262.6-283.9 470.3-546.6 544.8-113.6 32.1-228.2 38.7-346 19.9-105-16.8-210.2-57.3-301.5-116.1-199.1-128.2-331.6-339.6-359.4-573.4-4.3-36.2-5.1-50.3-5.1-94.9 0-41.7.8-58 4.1-87.5 15.1-134.8 63.7-262.6 141.8-372.5 42.6-60 97.2-117.6 155.1-163.5 115.8-92 255.5-149.8 403.2-167 28.6-3.3 55-4.6 90.3-4.6 90 0 167.6 12.6 254.1 41.3l18.9 6.3 260.3-130.2c143.1-71.6 260.5-130.2 261-130.2.4-.1.6 237.6.4 528.1z"/><path d="M1469 1107.7c-67.3 4.8-127.9 20.5-185.8 48.3-111.8 53.8-201.2 149.3-247.4 264.5-49.8 124.2-47.6 265.1 6.3 387.2 53.7 121.6 154.4 217.9 278.1 265.7 114.4 44.1 243.9 44.3 358.3.4 67.7-26 127.9-65.6 179-117.9 92.1-94.3 142.4-217.7 142.5-349.4 0-98.1-28.3-192.1-82.5-274.5-86-130.5-225.9-212.5-382-224-12.7-.9-55.3-1.1-66.5-.3z"/></svg>